<svg xmlns="http://www.w3.org/2000/svg" xmlns:xlink="http://www.w3.org/1999/xlink" contentStyleType="text/css" data-diagram-type="DESCRIPTION" height="1697px" preserveAspectRatio="none" style="width:477px;height:1697px;background:#FFFFFF;" version="1.1" viewBox="0 0 477 1697" width="477px" zoomAndPan="magnify"><title>Use Case - Sistem Peminjaman Fasilitas Sekolah</title><defs/><g><text fill="#000000" font-family="sans-serif" font-size="14" font-weight="bold" lengthAdjust="spacing" textLength="382.0811" x="40.8695" y="22.9951">Use Case - Sistem Peminjaman Fasilitas Sekolah</text><!--cluster Sistem Peminjaman Fasilitas Sekolah--><g class="cluster" data-entity="Sistem Peminjaman Fasilitas Sekolah" data-source-line="9" data-uid="ent0005" id="cluster_Sistem Peminjaman Fasilitas Sekolah"><rect fill="none" height="1647" rx="2.5" ry="2.5" style="stroke:#181818;stroke-width:1;" width="309.96" x="161.86" y="44.2969"/><text fill="#000000" font-family="sans-serif" font-size="14" font-weight="bold" lengthAdjust="spacing" textLength="294.9023" x="169.3888" y="59.292">Sistem Peminjaman Fasilitas Sekolah</text></g><g class="entity" data-entity="Login" data-source-line="12" data-uid="ent0006" id="entity_Login"><ellipse cx="316.8441" cy="1072.2926" fill="#F1F1F1" rx="38.4641" ry="14.5557" style="stroke:#181818;stroke-width:0.5;"/><text fill="#000000" font-family="sans-serif" font-size="14" lengthAdjust="spacing" textLength="38.0146" x="295.97" y="1075.7475">Login</text></g><g class="entity" data-entity="Lihat Daftar Fasilitas" data-source-line="13" data-uid="ent0008" id="entity_Lihat Daftar Fasilitas"><ellipse cx="316.8359" cy="778.3" fill="#F1F1F1" rx="91.2659" ry="20.6532" style="stroke:#181818;stroke-width:0.5;"/><text fill="#000000" font-family="sans-serif" font-size="14" lengthAdjust="spacing" textLength="144.6006" x="244.5356" y="781.1467">Lihat Daftar Fasilitas</text></g><g class="entity" data-entity="Ajukan Booking Fasilitas" data-source-line="14" data-uid="ent0010" id="entity_Ajukan Booking Fasilitas"><ellipse cx="316.8378" cy="272.3004" fill="#F1F1F1" rx="102.8178" ry="22.9636" style="stroke:#181818;stroke-width:0.5;"/><text fill="#000000" font-family="sans-serif" font-size="14" lengthAdjust="spacing" textLength="170.249" x="231.7133" y="275.1471">Ajukan Booking Fasilitas</text></g><g class="entity" data-entity="Lihat Status Booking" data-source-line="15" data-uid="ent0012" id="entity_Lihat Status Booking"><ellipse cx="316.841" cy="854.2931" fill="#F1F1F1" rx="91.281" ry="20.6562" style="stroke:#181818;stroke-width:0.5;"/><text fill="#000000" font-family="sans-serif" font-size="14" lengthAdjust="spacing" textLength="144.6348" x="244.5236" y="857.1398">Lihat Status Booking</text></g><g class="entity" data-entity="Check-in Fasilitas" data-source-line="16" data-uid="ent0014" id="entity_Check-in Fasilitas"><ellipse cx="316.8364" cy="540.3001" fill="#F1F1F1" rx="81.5664" ry="18.7133" style="stroke:#181818;stroke-width:0.5;"/><text fill="#000000" font-family="sans-serif" font-size="14" lengthAdjust="spacing" textLength="122.2881" x="254.6009" y="543.5066">Check-in Fasilitas</text></g><g class="entity" data-entity="Check-out Fasilitas" data-source-line="17" data-uid="ent0016" id="entity_Check-out Fasilitas"><ellipse cx="316.8353" cy="703.2919" fill="#F1F1F1" rx="85.9253" ry="19.5851" style="stroke:#181818;stroke-width:0.5;"/><text fill="#000000" font-family="sans-serif" font-size="14" lengthAdjust="spacing" textLength="132.4531" x="250.6087" y="706.1386">Check-out Fasilitas</text></g><g class="entity" data-entity="Lihat Ruangan / Fasilitas" data-source-line="20" data-uid="ent0019" id="entity_Lihat Ruangan / Fasilitas"><ellipse cx="316.8392" cy="1145.2947" fill="#F1F1F1" rx="103.6392" ry="23.1278" style="stroke:#181818;stroke-width:0.5;"/><text fill="#000000" font-family="sans-serif" font-size="14" lengthAdjust="spacing" textLength="172.0469" x="230.8157" y="1148.1414">Lihat Ruangan / Fasilitas</text></g><g class="entity" data-entity="Ajukan Booking" data-source-line="21" data-uid="ent0021" id="entity_Ajukan Booking"><ellipse cx="316.8355" cy="927.298" fill="#F1F1F1" rx="76.1055" ry="17.6211" style="stroke:#181818;stroke-width:0.5;"/><text fill="#000000" font-family="sans-serif" font-size="14" lengthAdjust="spacing" textLength="108.8418" x="259.4146" y="931.0455">Ajukan Booking</text></g><g class="entity" data-entity="Lihat Riwayat Booking" data-source-line="22" data-uid="ent0023" id="entity_Lihat Riwayat Booking"><ellipse cx="316.8397" cy="1001.3008" fill="#F1F1F1" rx="96.3697" ry="21.6739" style="stroke:#181818;stroke-width:0.5;"/><text fill="#000000" font-family="sans-serif" font-size="14" lengthAdjust="spacing" textLength="156.0234" x="238.8279" y="1004.1475">Lihat Riwayat Booking</text></g><g class="entity" data-entity="Kelola Fasilitas" data-source-line="25" data-uid="ent0026" id="entity_Kelola Fasilitas"><ellipse cx="316.838" cy="1363.3005" fill="#F1F1F1" rx="74.268" ry="17.2536" style="stroke:#181818;stroke-width:0.5;"/><text fill="#000000" font-family="sans-serif" font-size="14" lengthAdjust="spacing" textLength="104.125" x="261.7755" y="1367.048">Kelola Fasilitas</text></g><g class="entity" data-entity="Kelola Ruangan" data-source-line="26" data-uid="ent0028" id="entity_Kelola Ruangan"><ellipse cx="316.8377" cy="1433.2944" fill="#F1F1F1" rx="76.3877" ry="17.6775" style="stroke:#181818;stroke-width:0.5;"/><text fill="#000000" font-family="sans-serif" font-size="14" lengthAdjust="spacing" textLength="109.5596" x="259.0579" y="1437.042">Kelola Ruangan</text></g><g class="entity" data-entity="Kelola User" data-source-line="27" data-uid="ent0030" id="entity_Kelola User"><ellipse cx="316.8433" cy="1501.2975" fill="#F1F1F1" rx="65.1033" ry="15.4207" style="stroke:#181818;stroke-width:0.5;"/><text fill="#000000" font-family="sans-serif" font-size="14" lengthAdjust="spacing" textLength="79.0781" x="274.3043" y="1505.0451">Kelola User</text></g><g class="entity" data-entity="Review Pengajuan Booking" data-source-line="28" data-uid="ent0032" id="entity_Review Pengajuan Booking"><ellipse cx="316.8436" cy="1650.2996" fill="#F1F1F1" rx="111.7136" ry="24.7427" style="stroke:#181818;stroke-width:0.5;"/><text fill="#000000" font-family="sans-serif" font-size="14" lengthAdjust="spacing" textLength="189.5811" x="222.0531" y="1653.1463">Review Pengajuan Booking</text></g><g class="entity" data-entity="Approve Booking" data-source-line="29" data-uid="ent0034" id="entity_Approve Booking"><ellipse cx="316.8385" cy="1222.2986" fill="#F1F1F1" rx="80.4085" ry="18.4817" style="stroke:#181818;stroke-width:0.5;"/><text fill="#000000" font-family="sans-serif" font-size="14" lengthAdjust="spacing" textLength="119.5127" x="255.5691" y="1225.6337">Approve Booking</text></g><g class="entity" data-entity="Reject Booking" data-source-line="30" data-uid="ent0036" id="entity_Reject Booking"><ellipse cx="316.836" cy="1293.2961" fill="#F1F1F1" rx="74.596" ry="17.3192" style="stroke:#181818;stroke-width:0.5;"/><text fill="#000000" font-family="sans-serif" font-size="14" lengthAdjust="spacing" textLength="104.9727" x="261.3497" y="1297.0436">Reject Booking</text></g><g class="entity" data-entity="Generate Laporan" data-source-line="31" data-uid="ent0038" id="entity_Generate Laporan"><ellipse cx="316.842" cy="1571.2993" fill="#F1F1F1" rx="83.512" ry="19.1024" style="stroke:#181818;stroke-width:0.5;"/><text fill="#000000" font-family="sans-serif" font-size="14" lengthAdjust="spacing" textLength="126.875" x="252.9834" y="1574.2895">Generate Laporan</text></g><g class="entity" data-entity="Validasi Jadwal" data-source-line="34" data-uid="ent0040" id="entity_Validasi Jadwal"><ellipse cx="316.8419" cy="96.2933" fill="#F1F1F1" rx="74.4319" ry="17.2864" style="stroke:#181818;stroke-width:0.5;"/><text fill="#000000" font-family="sans-serif" font-size="14" lengthAdjust="spacing" textLength="104.5488" x="261.5675" y="100.0408">Validasi Jadwal</text></g><g class="entity" data-entity="Cek Ketersediaan Ruangan" data-source-line="35" data-uid="ent0042" id="entity_Cek Ketersediaan Ruangan"><ellipse cx="316.8399" cy="173.2929" fill="#F1F1F1" rx="111.9799" ry="24.796" style="stroke:#181818;stroke-width:0.5;"/><text fill="#000000" font-family="sans-serif" font-size="14" lengthAdjust="spacing" textLength="190.1553" x="221.7622" y="176.1395">Cek Ketersediaan Ruangan</text></g><g class="entity" data-entity="Verifikasi Waktu Mulai" data-source-line="36" data-uid="ent0044" id="entity_Verifikasi Waktu Mulai"><ellipse cx="316.8413" cy="364.2951" fill="#F1F1F1" rx="96.1913" ry="21.6383" style="stroke:#181818;stroke-width:0.5;"/><text fill="#000000" font-family="sans-serif" font-size="14" lengthAdjust="spacing" textLength="155.627" x="239.0279" y="367.1418">Verifikasi Waktu Mulai</text></g><g class="entity" data-entity="Generate Riwayat" data-source-line="37" data-uid="ent0046" id="entity_Generate Riwayat"><ellipse cx="316.8379" cy="613.3005" fill="#F1F1F1" rx="83.0679" ry="19.0136" style="stroke:#181818;stroke-width:0.5;"/><text fill="#000000" font-family="sans-serif" font-size="14" lengthAdjust="spacing" textLength="125.8359" x="253.3498" y="616.34">Generate Riwayat</text></g><g class="entity" data-entity="Auto Cancel Jika Terlambat" data-source-line="42" data-uid="ent0050" id="entity_Auto Cancel Jika Terlambat"><ellipse cx="316.8443" cy="445.2957" fill="#F1F1F1" rx="111.8943" ry="24.7789" style="stroke:#181818;stroke-width:0.5;"/><text fill="#000000" font-family="sans-serif" font-size="14" lengthAdjust="spacing" textLength="189.9707" x="221.8589" y="448.1424">Auto Cancel Jika Terlambat</text></g><!--entity Siswa--><g class="entity" data-entity="Siswa" data-source-line="5" data-uid="ent0002" id="entity_Siswa"><ellipse cx="28.4298" cy="226.6469" fill="#F1F1F1" rx="8" ry="8" style="stroke:#181818;stroke-width:0.5;"/><path d="M28.4298,234.6469 L28.4298,261.6469 M15.4298,242.6469 L41.4298,242.6469 M28.4298,261.6469 L15.4298,276.6469 M28.4298,261.6469 L41.4298,276.6469" fill="none" style="stroke:#181818;stroke-width:0.5;"/><text fill="#000000" font-family="sans-serif" font-size="14" lengthAdjust="spacing" textLength="40.0996" x="8.38" y="291.142">Siswa</text></g><!--entity Guru--><g class="entity" data-entity="Guru" data-source-line="6" data-uid="ent0003" id="entity_Guru"><ellipse cx="28.4353" cy="431.6469" fill="#F1F1F1" rx="8" ry="8" style="stroke:#181818;stroke-width:0.5;"/><path d="M28.4353,439.6469 L28.4353,466.6469 M15.4353,447.6469 L41.4353,447.6469 M28.4353,466.6469 L15.4353,481.6469 M28.4353,466.6469 L41.4353,481.6469" fill="none" style="stroke:#181818;stroke-width:0.5;"/><text fill="#000000" font-family="sans-serif" font-size="14" lengthAdjust="spacing" textLength="34.3506" x="11.26" y="496.142">Guru</text></g><!--entity Admin--><g class="entity" data-entity="Admin" data-source-line="7" data-uid="ent0004" id="entity_Admin"><ellipse cx="28.4321" cy="1382.6469" fill="#F1F1F1" rx="8" ry="8" style="stroke:#181818;stroke-width:0.5;"/><path d="M28.4321,1390.6469 L28.4321,1417.6469 M15.4321,1398.6469 L41.4321,1398.6469 M28.4321,1417.6469 L15.4321,1432.6469 M28.4321,1417.6469 L41.4321,1432.6469" fill="none" style="stroke:#181818;stroke-width:0.5;"/><text fill="#000000" font-family="sans-serif" font-size="14" lengthAdjust="spacing" textLength="44.8643" x="6" y="1447.142">Admin</text></g><!--link Siswa to Login--><g class="link" data-entity-1="Siswa" data-entity-2="Login" data-source-line="12" data-uid="lnk7" id="link_Siswa_Login"><path d="M48.8,285.7369 C79.25,332.6869 135.91,422.9469 145.86,459.2969 C150.13,474.8669 143.53,1027.8969 153.86,1040.2969 C183.96,1076.4069 235.9834,1079.7875 273.7934,1077.2575" fill="none" id="Siswa-to-Login" style="stroke:#181818;stroke-width:1;"/><polygon fill="#181818" points="279.78,1076.8569,270.533,1073.4667,274.7912,1077.1907,271.0671,1081.4488,279.78,1076.8569" style="stroke:#181818;stroke-width:1;"/></g><!--link Siswa to Lihat Daftar Fasilitas--><g class="link" data-entity-1="Siswa" data-entity-2="Lihat Daftar Fasilitas" data-source-line="13" data-uid="lnk9" id="link_Siswa_Lihat Daftar Fasilitas"><path d="M48.62,256.9169 C75.47,258.9469 123.47,267.0169 145.86,298.2969 C160.16,318.2669 138.44,721.1869 153.86,740.2969 C171.28,761.8769 192.5195,771.5186 219.6295,776.5186" fill="none" id="Siswa-to-Lihat Daftar Fasilitas" style="stroke:#181818;stroke-width:1;"/><polygon fill="#181818" points="225.53,777.6069,217.4048,772.0408,220.6129,776.7,215.9538,779.9082,225.53,777.6069" style="stroke:#181818;stroke-width:1;"/></g><!--link Siswa to Ajukan Booking Fasilitas--><g class="link" data-entity-1="Siswa" data-entity-2="Ajukan Booking Fasilitas" data-source-line="14" data-uid="lnk11" id="link_Siswa_Ajukan Booking Fasilitas"><path d="M43.77,218.0469 C51.99,201.8069 64.08,184.5269 80.86,175.2969 C106.18,161.3869 123.52,156.9769 145.86,175.2969 C159.88,186.7869 141.98,201.6069 153.86,215.2969 C173.41,237.8069 196.6435,249.735 224.7135,257.985" fill="none" id="Siswa-to-Ajukan Booking Fasilitas" style="stroke:#181818;stroke-width:1;"/><polygon fill="#181818" points="230.47,259.6769,222.9631,253.3014,225.6729,258.267,220.7073,260.9767,230.47,259.6769" style="stroke:#181818;stroke-width:1;"/></g><!--link Siswa to Lihat Status Booking--><g class="link" data-entity-1="Siswa" data-entity-2="Lihat Status Booking" data-source-line="15" data-uid="lnk13" id="link_Siswa_Lihat Status Booking"><path d="M48.79,271.3569 C58.35,278.7069 70.12,287.5969 80.86,295.2969 C109.22,315.6169 129.25,308.6169 145.86,339.2969 C158.48,362.6069 137.23,795.6669 153.86,816.2969 C171.27,837.8869 192.4991,847.5407 219.6091,852.5307" fill="none" id="Siswa-to-Lihat Status Booking" style="stroke:#181818;stroke-width:1;"/><polygon fill="#181818" points="225.51,853.6169,217.3828,848.0537,220.5926,852.7118,215.9346,855.9216,225.51,853.6169" style="stroke:#181818;stroke-width:1;"/></g><!--link Siswa to Check-in Fasilitas--><g class="link" data-entity-1="Siswa" data-entity-2="Check-in Fasilitas" data-source-line="16" data-uid="lnk15" id="link_Siswa_Check-in Fasilitas"><path d="M48.57,236.4669 C57.54,228.5769 68.88,220.4069 80.86,216.2969 C108.19,206.9169 125.14,196.1769 145.86,216.2969 C167.48,237.2769 135.82,463.1669 153.86,487.2969 C173.89,514.0769 201.9198,526.2957 233.5598,532.9857" fill="none" id="Siswa-to-Check-in Fasilitas" style="stroke:#181818;stroke-width:1;"/><polygon fill="#181818" points="239.43,534.2269,231.4521,528.4516,234.5382,533.1925,229.7972,536.2785,239.43,534.2269" style="stroke:#181818;stroke-width:1;"/></g><!--link Siswa to Check-out Fasilitas--><g class="link" data-entity-1="Siswa" data-entity-2="Check-out Fasilitas" data-source-line="17" data-uid="lnk17" id="link_Siswa_Check-out Fasilitas"><path d="M48.58,249.3369 C74.5,241.2969 120.42,232.1469 145.86,257.2969 C161.4,272.6469 140.87,632.7469 153.86,650.2969 C173.06,676.2169 199.4167,688.3481 230.0867,695.2581" fill="none" id="Siswa-to-Check-out Fasilitas" style="stroke:#181818;stroke-width:1;"/><polygon fill="#181818" points="235.94,696.5769,228.0392,690.6966,231.0623,695.4779,226.2809,698.5009,235.94,696.5769" style="stroke:#181818;stroke-width:1;"/></g><!--link Guru to Login--><g class="link" data-entity-1="Guru" data-entity-2="Login" data-source-line="19" data-uid="lnk18" id="link_Guru_Login"><path d="M46,461.7269 C72.25,463.4169 122.77,470.9369 145.86,503.2969 C163.19,527.5869 134.75,1017.3869 153.86,1040.2969 C183.98,1076.3969 236.0033,1079.776 273.8033,1077.256" fill="none" id="Guru-to-Login" style="stroke:#181818;stroke-width:1;"/><polygon fill="#181818" points="279.79,1076.8569,270.5439,1073.4644,274.8011,1077.1895,271.076,1081.4467,279.79,1076.8569" style="stroke:#181818;stroke-width:1;"/></g><!--link Guru to Lihat Ruangan / Fasilitas--><g class="link" data-entity-1="Guru" data-entity-2="Lihat Ruangan / Fasilitas" data-source-line="20" data-uid="lnk20" id="link_Guru_Lihat Ruangan / Fasilitas"><path d="M31.58,499.5269 C39.35,624.1369 70.12,1015.6569 153.86,1104.2969 C170.6,1122.0069 187.982,1131.0014 211.592,1137.1214" fill="none" id="Guru-to-Lihat Ruangan / Fasilitas" style="stroke:#181818;stroke-width:1;"/><polygon fill="#181818" points="217.4,1138.6269,209.6916,1132.4966,212.56,1137.3723,207.6843,1140.2406,217.4,1138.6269" style="stroke:#181818;stroke-width:1;"/></g><!--link Guru to Ajukan Booking--><g class="link" data-entity-1="Guru" data-entity-2="Ajukan Booking" data-source-line="21" data-uid="lnk22" id="link_Guru_Ajukan Booking"><path d="M45.77,443.9869 C55.12,435.3769 67.6,425.8469 80.86,421.2969 C108.19,411.9169 125.26,401.0469 145.86,421.2969 C164.53,439.6469 137.26,872.0669 153.86,892.2969 C174.86,917.8669 203.7042,926.9889 235.6942,929.8689" fill="none" id="Guru-to-Ajukan Booking" style="stroke:#181818;stroke-width:1;"/><polygon fill="#181818" points="241.67,930.4069,233.0649,925.616,236.6901,929.9585,232.3476,933.5838,241.67,930.4069" style="stroke:#181818;stroke-width:1;"/></g><!--link Guru to Lihat Riwayat Booking--><g class="link" data-entity-1="Guru" data-entity-2="Lihat Riwayat Booking" data-source-line="22" data-uid="lnk24" id="link_Guru_Lihat Riwayat Booking"><path d="M46.03,455.1369 C71.39,446.9269 119.61,436.2369 145.86,462.2969 C165.58,481.8669 136.5,940.6169 153.86,962.2969 C170.23,982.7269 189.3945,992.3237 214.9345,997.8237" fill="none" id="Guru-to-Lihat Riwayat Booking" style="stroke:#181818;stroke-width:1;"/><polygon fill="#181818" points="220.8,999.0869,212.8438,993.2818,215.9121,998.0343,211.1596,1001.1025,220.8,999.0869" style="stroke:#181818;stroke-width:1;"/></g><!--link Admin to Login--><g class="link" data-entity-1="Admin" data-entity-2="Login" data-source-line="24" data-uid="lnk25" id="link_Admin_Login"><path d="M32.43,1373.8369 C39.92,1306.6769 65.78,1168.9969 153.86,1104.2969 C190.14,1077.6569 236.841,1071.7689 272.181,1071.1089" fill="none" id="Admin-to-Login" style="stroke:#181818;stroke-width:1;"/><polygon fill="#181818" points="278.18,1070.9969,269.1069,1067.1656,273.1809,1071.0902,269.2563,1075.1642,278.18,1070.9969" style="stroke:#181818;stroke-width:1;"/></g><!--link Admin to Kelola Fasilitas--><g class="link" data-entity-1="Admin" data-entity-2="Kelola Fasilitas" data-source-line="25" data-uid="lnk27" id="link_Admin_Kelola Fasilitas"><path d="M50.96,1408.6169 C94.02,1401.2469 186.196,1385.4792 250.166,1374.5292" fill="none" id="Admin-to-Kelola Fasilitas" style="stroke:#181818;stroke-width:1;"/><polygon fill="#181818" points="256.08,1373.5169,246.5341,1371.0927,251.1517,1374.3605,247.8839,1378.978,256.08,1373.5169" style="stroke:#181818;stroke-width:1;"/></g><!--link Admin to Kelola Ruangan--><g class="link" data-entity-1="Admin" data-entity-2="Kelola Ruangan" data-source-line="26" data-uid="lnk29" id="link_Admin_Kelola Ruangan"><path d="M50.96,1413.8769 C91.29,1416.8369 173.9061,1422.8877 237.5361,1427.5577" fill="none" id="Admin-to-Kelola Ruangan" style="stroke:#181818;stroke-width:1;"/><polygon fill="#181818" points="243.52,1427.9969,234.8369,1423.3488,238.5334,1427.6309,234.2514,1431.3274,243.52,1427.9969" style="stroke:#181818;stroke-width:1;"/></g><!--link Admin to Kelola User--><g class="link" data-entity-1="Admin" data-entity-2="Kelola User" data-source-line="27" data-uid="lnk31" id="link_Admin_Kelola User"><path d="M51.32,1423.9469 C75.72,1436.5069 116.66,1456.2969 153.86,1468.2969 C188.69,1479.5269 223.0962,1486.7436 254.7862,1492.1736" fill="none" id="Admin-to-Kelola User" style="stroke:#181818;stroke-width:1;"/><polygon fill="#181818" points="260.7,1493.1869,252.5048,1487.7244,255.7718,1492.3424,251.1537,1495.6094,260.7,1493.1869" style="stroke:#181818;stroke-width:1;"/></g><!--link Admin to Review Pengajuan Booking--><g class="link" data-entity-1="Admin" data-entity-2="Review Pengajuan Booking" data-source-line="28" data-uid="lnk33" id="link_Admin_Review Pengajuan Booking"><path d="M40.46,1450.7369 C49.02,1476.8269 62.54,1511.3269 80.86,1538.2969 C106.13,1575.4769 114.61,1586.3869 153.86,1608.2969 C175.93,1620.6169 195.8974,1627.9192 220.3174,1634.1692" fill="none" id="Admin-to-Review Pengajuan Booking" style="stroke:#181818;stroke-width:1;"/><polygon fill="#181818" points="226.13,1635.6569,218.4028,1629.5503,221.2861,1634.4171,216.4193,1637.3005,226.13,1635.6569" style="stroke:#181818;stroke-width:1;"/></g><!--link Admin to Approve Booking--><g class="link" data-entity-1="Admin" data-entity-2="Approve Booking" data-source-line="29" data-uid="lnk35" id="link_Admin_Approve Booking"><path d="M35.61,1373.7869 C42.16,1344.9369 55.25,1306.4369 80.86,1282.2969 C122.38,1243.1669 179.8091,1229.2371 230.2891,1224.2471" fill="none" id="Admin-to-Approve Booking" style="stroke:#181818;stroke-width:1;"/><polygon fill="#181818" points="236.26,1223.6569,226.9102,1220.5616,231.2843,1224.1487,227.6971,1228.5228,236.26,1223.6569" style="stroke:#181818;stroke-width:1;"/></g><!--link Admin to Reject Booking--><g class="link" data-entity-1="Admin" data-entity-2="Reject Booking" data-source-line="30" data-uid="lnk37" id="link_Admin_Reject Booking"><path d="M41.81,1373.6869 C49.89,1354.8069 62.44,1333.5669 80.86,1321.2969 C130.19,1288.4469 192.5454,1283.4717 242.8154,1285.6117" fill="none" id="Admin-to-Reject Booking" style="stroke:#181818;stroke-width:1;"/><polygon fill="#181818" points="248.81,1285.8669,239.9883,1281.4877,243.8145,1285.6542,239.648,1289.4805,248.81,1285.8669" style="stroke:#181818;stroke-width:1;"/></g><!--link Admin to Generate Laporan--><g class="link" data-entity-1="Admin" data-entity-2="Generate Laporan" data-source-line="31" data-uid="lnk39" id="link_Admin_Generate Laporan"><path d="M51.35,1442.9069 C73.68,1471.5669 111.04,1513.0569 153.86,1534.2969 C181.39,1547.9469 208.1472,1555.5079 236.9072,1561.0179" fill="none" id="Admin-to-Generate Laporan" style="stroke:#181818;stroke-width:1;"/><polygon fill="#181818" points="242.8,1562.1469,234.7134,1556.5249,237.8893,1561.2061,233.2081,1564.382,242.8,1562.1469" style="stroke:#181818;stroke-width:1;"/></g><!--link Ajukan Booking Fasilitas to Validasi Jadwal--><g class="link" data-entity-1="Ajukan Booking Fasilitas" data-entity-2="Validasi Jadwal" data-source-line="34" data-uid="lnk41" id="link_Ajukan Booking Fasilitas_Validasi Jadwal"><path d="M236.23,257.8469 C207.52,249.3869 176.68,236.0969 153.86,215.2969 C117.83,182.4469 81.73,148.6469 114.78,112.7969 C151.99,72.4169 212.9723,74.0782 259.5623,82.3482" fill="none" id="Ajukan Booking Fasilitas-to-Validasi Jadwal" style="stroke:#181818;stroke-width:1;stroke-dasharray:7.0,7.0;"/><polygon fill="#181818" points="265.47,83.3969,257.3076,77.8855,260.547,82.523,255.9094,85.7623,265.47,83.3969" style="stroke:#181818;stroke-width:1;"/><text fill="#000000" font-family="sans-serif" font-size="13" lengthAdjust="spacing" textLength="63.0068" x="81.86" y="125.8638">&#171;include&#187;</text></g><!--link Ajukan Booking Fasilitas to Cek Ketersediaan Ruangan--><g class="link" data-entity-1="Ajukan Booking Fasilitas" data-entity-2="Cek Ketersediaan Ruangan" data-source-line="35" data-uid="lnk43" id="link_Ajukan Booking Fasilitas_Cek Ketersediaan Ruangan"><path d="M316.84,248.8369 C316.84,233.6269 316.84,219.8269 316.84,204.3169" fill="none" id="Ajukan Booking Fasilitas-to-Cek Ketersediaan Ruangan" style="stroke:#181818;stroke-width:1;stroke-dasharray:7.0,7.0;"/><polygon fill="#181818" points="316.84,198.3169,312.84,207.3169,316.84,203.3169,320.84,207.3169,316.84,198.3169" style="stroke:#181818;stroke-width:1;"/><text fill="#000000" font-family="sans-serif" font-size="13" lengthAdjust="spacing" textLength="63.0068" x="273.84" y="228.2838">&#171;include&#187;</text></g><!--link Check-in Fasilitas to Verifikasi Waktu Mulai--><g class="link" data-entity-1="Check-in Fasilitas" data-entity-2="Verifikasi Waktu Mulai" data-source-line="36" data-uid="lnk45" id="link_Check-in Fasilitas_Verifikasi Waktu Mulai"><path d="M258.53,553.6869 C212.39,560.4769 150.04,560.4369 114.78,521.7969 C100.51,506.1569 89.98,459.2169 153.86,403.2969 C173.46,386.1469 193.4144,377.5251 218.7044,371.8751" fill="none" id="Check-in Fasilitas-to-Verifikasi Waktu Mulai" style="stroke:#181818;stroke-width:1;stroke-dasharray:7.0,7.0;"/><polygon fill="#181818" points="224.56,370.5669,214.9044,368.6254,219.6803,371.657,216.6487,376.4329,224.56,370.5669" style="stroke:#181818;stroke-width:1;"/><text fill="#000000" font-family="sans-serif" font-size="13" lengthAdjust="spacing" textLength="63.0068" x="81.86" y="517.8638">&#171;include&#187;</text></g><!--link Check-out Fasilitas to Generate Riwayat--><g class="link" data-entity-1="Check-out Fasilitas" data-entity-2="Generate Riwayat" data-source-line="37" data-uid="lnk47" id="link_Check-out Fasilitas_Generate Riwayat"><path d="M316.84,683.3269 C316.84,668.1969 316.84,653.5469 316.84,638.5969" fill="none" id="Check-out Fasilitas-to-Generate Riwayat" style="stroke:#181818;stroke-width:1;stroke-dasharray:7.0,7.0;"/><polygon fill="#181818" points="316.84,632.5969,312.84,641.5969,316.84,637.5969,320.84,641.5969,316.84,632.5969" style="stroke:#181818;stroke-width:1;"/><text fill="#000000" font-family="sans-serif" font-size="13" lengthAdjust="spacing" textLength="63.0068" x="273.84" y="662.5738">&#171;include&#187;</text></g><!--link Review Pengajuan Booking to Approve Booking--><g class="link" data-entity-1="Review Pengajuan Booking" data-entity-2="Approve Booking" data-source-line="40" data-uid="lnk48" id="link_Review Pengajuan Booking_Approve Booking"><path d="M211.4,1641.8469 C189.75,1635.3969 168.98,1624.9569 153.86,1608.2969 C75.24,1521.6469 92.4,1462.4469 115.78,1347.7969 C124.42,1305.4369 120.6,1285.9069 153.86,1258.2969 C176.94,1239.1369 202.0744,1230.5289 230.8844,1225.9489" fill="none" id="Review Pengajuan Booking-to-Approve Booking" style="stroke:#181818;stroke-width:1;stroke-dasharray:7.0,7.0;"/><polygon fill="#181818" points="236.81,1225.0069,227.2936,1222.4695,231.872,1225.7919,228.5496,1230.3703,236.81,1225.0069" style="stroke:#181818;stroke-width:1;"/><text fill="#000000" font-family="sans-serif" font-size="13" lengthAdjust="spacing" textLength="61.1851" x="82.86" y="1360.8638">&#171;extend&#187;</text></g><!--link Review Pengajuan Booking to Reject Booking--><g class="link" data-entity-1="Review Pengajuan Booking" data-entity-2="Reject Booking" data-source-line="41" data-uid="lnk49" id="link_Review Pengajuan Booking_Reject Booking"><path d="M211.24,1641.9969 C189.59,1635.5469 168.87,1625.0669 153.86,1608.2969 C111.33,1560.7669 74.19,1372.1669 115.78,1323.7969 C148.92,1285.2469 202.4142,1280.0043 248.1142,1283.1543" fill="none" id="Review Pengajuan Booking-to-Reject Booking" style="stroke:#181818;stroke-width:1;stroke-dasharray:7.0,7.0;"/><polygon fill="#181818" points="254.1,1283.5669,245.3964,1278.9575,249.1118,1283.2231,244.8462,1286.9385,254.1,1283.5669" style="stroke:#181818;stroke-width:1;"/><text fill="#000000" font-family="sans-serif" font-size="13" lengthAdjust="spacing" textLength="61.1851" x="82.86" y="1336.8638">&#171;extend&#187;</text></g><!--link Check-in Fasilitas to Auto Cancel Jika Terlambat--><g class="link" data-entity-1="Check-in Fasilitas" data-entity-2="Auto Cancel Jika Terlambat" data-source-line="42" data-uid="lnk51" id="link_Check-in Fasilitas_Auto Cancel Jika Terlambat"><path d="M316.84,521.5269 C316.84,506.9269 316.84,492.5269 316.84,476.5069" fill="none" id="Check-in Fasilitas-to-Auto Cancel Jika Terlambat" style="stroke:#181818;stroke-width:1;stroke-dasharray:7.0,7.0;"/><polygon fill="#181818" points="316.84,470.5069,312.84,479.5069,316.84,475.5069,320.84,479.5069,316.84,470.5069" style="stroke:#181818;stroke-width:1;"/><text fill="#000000" font-family="sans-serif" font-size="13" lengthAdjust="spacing" textLength="61.1851" x="274.84" y="500.3938">&#171;extend&#187;</text></g><!--SRC=[ZLHDRzD04BtlhnZrGdC8lQCIAGIeQ8j02MtFKtkIZBtPjVQZ0I7-E-EFn1_OG0xEQkUzUSzl9WaSDC639rYXFEQmOH_e05_fm2R30nhuY9ur1_ImeTngt2kbQHiWM72ysmT8sL4Is1gbC0dMbJsEs9nleelDSPbAJwLAC9gTo5xyXzW5_5Jg5RojFgtHXo1mk89bxhafgaeMvlC5NDxR7PjPxuRt6E0zRWEwLgK7MMOn5mllhCtPx2P0TPzDm13z2Te3hFQKv7Cs4_owR6FerbMPKizvvw8IN4U9JCnTTMajg6zzXCv7_27VPu2gXj6JxDpSaPRikr9_5Xj7OoMPaklTh-c5wIXp5aOMkqOxe6LHEFj2exKrPR8rewKRCkGm4DnZOLrfg5sNJoRHCIMuVCACdsLHCzHeogGAJ154pvE7G2wG2N5sMgJfJO3NelY8cbEvWbjCZwXdy0QkhxcMMYp-nLvH3dSacfvIHi6TWXos6LcaMfuSRpal3JnX7Y9yZXfvWjvVj8f_3gnPYY6pZU_3TyabbR5QaxAN7pXgMS0lHNriuveSRwKtd6ibHrNhqkVVoOF13xXJ4IsZ_3cjq2IauLQYWc_aD1wUJozxxl1B_GO0]--></g></svg>